<svg xmlns="http://www.w3.org/2000/svg" viewBox="0 0 900 107.045"><path fill="#10243d" d="M0 65L25 67.3C50 69.7 100 74.3 150 75.8C200 77.3 250 75.7 300 79.3C350 83 400 92 450 98.8C500 105.7 550 110.3 600 104.2C650 98 700 81 750 75C800 69 850 74 875 76.5L900 79L900 0L875 0C850 0 800 0 750 0C700 0 650 0 600 0C550 0 500 0 450 0C400 0 350 0 300 0C250 0 200 0 150 0C100 0 50 0 25 0L0 0Z"/><path fill="#1d2a4d" d="M0 105L25 97.2C50 89.3 100 73.7 150 69.7C200 65.7 250 73.3 300 71.8C350 70.3 400 59.7 450 55.2C500 50.7 550 52.3 600 59.2C650 66 700 78 750 82.5C800 87 850 84 875 82.5L900 81L900 0L875 0C850 0 800 0 750 0C700 0 650 0 600 0C550 0 500 0 450 0C400 0 350 0 300 0C250 0 200 0 150 0C100 0 50 0 25 0L0 0Z"/><path fill="#2f2f5c" d="M0 79L25 79.8C50 80.7 100 82.3 150 77.2C200 72 250 60 300 53.2C350 46.3 400 44.7 450 45.5C500 46.3 550 49.7 600 58.3C650 67 700 81 750 82.2C800 83.3 850 71.7 875 65.8L900 60L900 0L875 0C850 0 800 0 750 0C700 0 650 0 600 0C550 0 500 0 450 0C400 0 350 0 300 0C250 0 200 0 150 0C100 0 50 0 25 0L0 0Z"/><path fill="#463168" d="M0 85L25 84.8C50 84.7 100 84.3 150 83.3C200 82.3 250 80.7 300 80.5C350 80.3 400 81.7 450 75.8C500 70 550 57 600 55.8C650 54.7 700 65.3 750 71C800 76.7 850 77.3 875 77.7L900 78L900 0L875 0C850 0 800 0 750 0C700 0 650 0 600 0C550 0 500 0 450 0C400 0 350 0 300 0C250 0 200 0 150 0C100 0 50 0 25 0L0 0Z"/><path fill="#5f3270" d="M0 69L25 68.7C50 68.3 100 67.7 150 61.5C200 55.3 250 43.7 300 39C350 34.3 400 36.7 450 41.7C500 46.7 550 54.3 600 59C650 63.7 700 65.3 750 66.5C800 67.7 850 68.3 875 68.7L900 69L900 0L875 0C850 0 800 0 750 0C700 0 650 0 600 0C550 0 500 0 450 0C400 0 350 0 300 0C250 0 200 0 150 0C100 0 50 0 25 0L0 0Z"/><path fill="#7a3074" d="M0 54L25 54.5C50 55 100 56 150 52.2C200 48.3 250 39.7 300 35.7C350 31.7 400 32.3 450 32.8C500 33.3 550 33.7 600 32.7C650 31.7 700 29.3 750 31.3C800 33.3 850 39.7 875 42.8L900 46L900 0L875 0C850 0 800 0 750 0C700 0 650 0 600 0C550 0 500 0 450 0C400 0 350 0 300 0C250 0 200 0 150 0C100 0 50 0 25 0L0 0Z"/><path fill="#942d75" d="M0 24L25 24.3C50 24.7 100 25.3 150 27.5C200 29.7 250 33.3 300 36.2C350 39 400 41 450 41.3C500 41.7 550 40.3 600 38.3C650 36.3 700 33.7 750 34.5C800 35.3 850 39.7 875 41.8L900 44L900 0L875 0C850 0 800 0 750 0C700 0 650 0 600 0C550 0 500 0 450 0C400 0 350 0 300 0C250 0 200 0 150 0C100 0 50 0 25 0L0 0Z"/><path fill="#ae2770" d="M0 17L25 19.7C50 22.3 100 27.7 150 28.5C200 29.3 250 25.7 300 24.5C350 23.3 400 24.7 450 24.7C500 24.7 550 23.3 600 24.8C650 26.3 700 30.7 750 31.8C800 33 850 31 875 30L900 29L900 0L875 0C850 0 800 0 750 0C700 0 650 0 600 0C550 0 500 0 450 0C400 0 350 0 300 0C250 0 200 0 150 0C100 0 50 0 25 0L0 0Z"/><path fill="#c62368" d="M0 11L25 11.7C50 12.3 100 13.7 150 15.7C200 17.7 250 20.3 300 19.7C350 19 400 15 450 14C500 13 550 15 600 15.3C650 15.7 700 14.3 750 15.3C800 16.3 850 19.7 875 21.3L900 23L900 0L875 0C850 0 800 0 750 0C700 0 650 0 600 0C550 0 500 0 450 0C400 0 350 0 300 0C250 0 200 0 150 0C100 0 50 0 25 0L0 0Z"/></svg>