<svg xmlns="http://www.w3.org/2000/svg" xmlns:xlink="http://www.w3.org/1999/xlink" id="visual" width="900" height="600" version="1.1" viewBox="0 0 900 600"><rect width="900" height="600" x="0" y="0" fill="#fff"/><path fill="#10243d" d="M0 500L25 489.5C50 479 100 458 150 452.2C200 446.3 250 455.7 300 462.7C350 469.7 400 474.3 450 477.8C500 481.3 550 483.7 600 470.8C650 458 700 430 750 424.3C800 418.7 850 435.3 875 443.7L900 452L900 601L875 601C850 601 800 601 750 601C700 601 650 601 600 601C550 601 500 601 450 601C400 601 350 601 300 601C250 601 200 601 150 601C100 601 50 601 25 601L0 601Z"/><path fill="#1d2a4d" d="M0 462L25 467.3C50 472.7 100 483.3 150 491.3C200 499.3 250 504.7 300 507.5C350 510.3 400 510.7 450 512C500 513.3 550 515.7 600 499.5C650 483.3 700 448.7 750 439C800 429.3 850 444.7 875 452.3L900 460L900 601L875 601C850 601 800 601 750 601C700 601 650 601 600 601C550 601 500 601 450 601C400 601 350 601 300 601C250 601 200 601 150 601C100 601 50 601 25 601L0 601Z"/><path fill="#2f2f5c" d="M0 447L25 449.3C50 451.7 100 456.3 150 468.5C200 480.7 250 500.3 300 509.8C350 519.3 400 518.7 450 515.8C500 513 550 508 600 500C650 492 700 481 750 479.2C800 477.3 850 484.7 875 488.3L900 492L900 601L875 601C850 601 800 601 750 601C700 601 650 601 600 601C550 601 500 601 450 601C400 601 350 601 300 601C250 601 200 601 150 601C100 601 50 601 25 601L0 601Z"/><path fill="#463168" d="M0 497L25 501.8C50 506.7 100 516.3 150 514.5C200 512.7 250 499.3 300 499.8C350 500.3 400 514.7 450 516.8C500 519 550 509 600 503C650 497 700 495 750 490.3C800 485.7 850 478.3 875 474.7L900 471L900 601L875 601C850 601 800 601 750 601C700 601 650 601 600 601C550 601 500 601 450 601C400 601 350 601 300 601C250 601 200 601 150 601C100 601 50 601 25 601L0 601Z"/><path fill="#5f3270" d="M0 518L25 514.8C50 511.7 100 505.3 150 502C200 498.7 250 498.3 300 504.2C350 510 400 522 450 528.3C500 534.7 550 535.3 600 531C650 526.7 700 517.3 750 512.5C800 507.7 850 507.3 875 507.2L900 507L900 601L875 601C850 601 800 601 750 601C700 601 650 601 600 601C550 601 500 601 450 601C400 601 350 601 300 601C250 601 200 601 150 601C100 601 50 601 25 601L0 601Z"/><path fill="#7a3074" d="M0 549L25 543.5C50 538 100 527 150 520.3C200 513.7 250 511.3 300 512.8C350 514.3 400 519.7 450 524.2C500 528.7 550 532.3 600 532.8C650 533.3 700 530.7 750 533C800 535.3 850 542.7 875 546.3L900 550L900 601L875 601C850 601 800 601 750 601C700 601 650 601 600 601C550 601 500 601 450 601C400 601 350 601 300 601C250 601 200 601 150 601C100 601 50 601 25 601L0 601Z"/><path fill="#942d75" d="M0 556L25 551.2C50 546.3 100 536.7 150 535.7C200 534.7 250 542.3 300 544.3C350 546.3 400 542.7 450 538C500 533.3 550 527.7 600 530.5C650 533.3 700 544.7 750 548.5C800 552.3 850 548.7 875 546.8L900 545L900 601L875 601C850 601 800 601 750 601C700 601 650 601 600 601C550 601 500 601 450 601C400 601 350 601 300 601C250 601 200 601 150 601C100 601 50 601 25 601L0 601Z"/><path fill="#ae2770" d="M0 569L25 569.3C50 569.7 100 570.3 150 566C200 561.7 250 552.3 300 551.5C350 550.7 400 558.3 450 561C500 563.7 550 561.3 600 561.3C650 561.3 700 563.7 750 564.8C800 566 850 566 875 566L900 566L900 601L875 601C850 601 800 601 750 601C700 601 650 601 600 601C550 601 500 601 450 601C400 601 350 601 300 601C250 601 200 601 150 601C100 601 50 601 25 601L0 601Z"/><path fill="#c62368" d="M0 569L25 568.8C50 568.7 100 568.3 150 567.2C200 566 250 564 300 565.8C350 567.7 400 573.3 450 573.5C500 573.7 550 568.3 600 565C650 561.7 700 560.3 750 561.2C800 562 850 565 875 566.5L900 568L900 601L875 601C850 601 800 601 750 601C700 601 650 601 600 601C550 601 500 601 450 601C400 601 350 601 300 601C250 601 200 601 150 601C100 601 50 601 25 601L0 601Z"/></svg>