<svg id="visual" viewBox="0 0 900 600" width="900" height="600" xmlns="http://www.w3.org/2000/svg" xmlns:xlink="http://www.w3.org/1999/xlink" version="1.1"><path d="M0 133L13.7 133C27.3 133 54.7 133 82 122C109.3 111 136.7 89 163.8 81C191 73 218 79 245.2 81C272.3 83 299.7 81 327 82C354.3 83 381.7 87 409 88C436.3 89 463.7 87 491 89C518.3 91 545.7 97 573 103C600.3 109 627.7 115 654.8 107C682 99 709 77 736.2 69C763.3 61 790.7 67 818 77C845.3 87 872.7 101 886.3 108L900 115L900 0L886.3 0C872.7 0 845.3 0 818 0C790.7 0 763.3 0 736.2 0C709 0 682 0 654.8 0C627.7 0 600.3 0 573 0C545.7 0 518.3 0 491 0C463.7 0 436.3 0 409 0C381.7 0 354.3 0 327 0C299.7 0 272.3 0 245.2 0C218 0 191 0 163.8 0C136.7 0 109.3 0 82 0C54.7 0 27.3 0 13.7 0L0 0Z" fill="#6198ff"></path><path d="M0 247L13.7 251C27.3 255 54.7 263 82 250C109.3 237 136.7 203 163.8 191C191 179 218 189 245.2 195C272.3 201 299.7 203 327 206C354.3 209 381.7 213 409 212C436.3 211 463.7 205 491 196C518.3 187 545.7 175 573 182C600.3 189 627.7 215 654.8 216C682 217 709 193 736.2 180C763.3 167 790.7 165 818 164C845.3 163 872.7 163 886.3 163L900 163L900 113L886.3 106C872.7 99 845.3 85 818 75C790.7 65 763.3 59 736.2 67C709 75 682 97 654.8 105C627.7 113 600.3 107 573 101C545.7 95 518.3 89 491 87C463.7 85 436.3 87 409 86C381.7 85 354.3 81 327 80C299.7 79 272.3 81 245.2 79C218 77 191 71 163.8 79C136.7 87 109.3 109 82 120C54.7 131 27.3 131 13.7 131L0 131Z" fill="#005fee"></path><path d="M0 475L13.7 469C27.3 463 54.7 451 82 424C109.3 397 136.7 355 163.8 347C191 339 218 365 245.2 381C272.3 397 299.7 403 327 408C354.3 413 381.7 417 409 405C436.3 393 463.7 365 491 339C518.3 313 545.7 289 573 305C600.3 321 627.7 377 654.8 409C682 441 709 449 736.2 432C763.3 415 790.7 373 818 346C845.3 319 872.7 307 886.3 301L900 295L900 161L886.3 161C872.7 161 845.3 161 818 162C790.7 163 763.3 165 736.2 178C709 191 682 215 654.8 214C627.7 213 600.3 187 573 180C545.7 173 518.3 185 491 194C463.7 203 436.3 209 409 210C381.7 211 354.3 207 327 204C299.7 201 272.3 199 245.2 193C218 187 191 177 163.8 189C136.7 201 109.3 235 82 248C54.7 261 27.3 253 13.7 249L0 245Z" fill="#004cbb"></path><path d="M0 511L13.7 505C27.3 499 54.7 487 82 470C109.3 453 136.7 431 163.8 424C191 417 218 425 245.2 433C272.3 441 299.7 449 327 464C354.3 479 381.7 501 409 494C436.3 487 463.7 451 491 425C518.3 399 545.7 383 573 397C600.3 411 627.7 455 654.8 476C682 497 709 495 736.2 484C763.3 473 790.7 453 818 435C845.3 417 872.7 401 886.3 393L900 385L900 293L886.3 299C872.7 305 845.3 317 818 344C790.7 371 763.3 413 736.2 430C709 447 682 439 654.8 407C627.7 375 600.3 319 573 303C545.7 287 518.3 311 491 337C463.7 363 436.3 391 409 403C381.7 415 354.3 411 327 406C299.7 401 272.3 395 245.2 379C218 363 191 337 163.8 345C136.7 353 109.3 395 82 422C54.7 449 27.3 461 13.7 467L0 473Z" fill="#005fee"></path><path d="M0 601L13.7 601C27.3 601 54.7 601 82 601C109.3 601 136.7 601 163.8 601C191 601 218 601 245.2 601C272.3 601 299.7 601 327 601C354.3 601 381.7 601 409 601C436.3 601 463.7 601 491 601C518.3 601 545.7 601 573 601C600.3 601 627.7 601 654.8 601C682 601 709 601 736.2 601C763.3 601 790.7 601 818 601C845.3 601 872.7 601 886.3 601L900 601L900 383L886.3 391C872.7 399 845.3 415 818 433C790.7 451 763.3 471 736.2 482C709 493 682 495 654.8 474C627.7 453 600.3 409 573 395C545.7 381 518.3 397 491 423C463.7 449 436.3 485 409 492C381.7 499 354.3 477 327 462C299.7 447 272.3 439 245.2 431C218 423 191 415 163.8 422C136.7 429 109.3 451 82 468C54.7 485 27.3 497 13.7 503L0 509Z" fill="#6198ff"></path></svg>