<svg xmlns="http://www.w3.org/2000/svg" xmlns:xlink="http://www.w3.org/1999/xlink" id="visual" width="900" height="600" version="1.1" viewBox="0 0 900 600"><rect width="900" height="600" x="0" y="0" fill="#001220"/><path fill="#c62368" d="M0 264L13.7 266C27.3 268 54.7 272 82 273.7C109.3 275.3 136.7 274.7 163.8 270.5C191 266.3 218 258.7 245.2 260.7C272.3 262.7 299.7 274.3 327 276C354.3 277.7 381.7 269.3 409 264.5C436.3 259.7 463.7 258.3 491 261.5C518.3 264.7 545.7 272.3 573 273.2C600.3 274 627.7 268 654.8 264.3C682 260.7 709 259.3 736.2 258.3C763.3 257.3 790.7 256.7 818 256.3C845.3 256 872.7 256 886.3 256L900 256L900 0L886.3 0C872.7 0 845.3 0 818 0C790.7 0 763.3 0 736.2 0C709 0 682 0 654.8 0C627.7 0 600.3 0 573 0C545.7 0 518.3 0 491 0C463.7 0 436.3 0 409 0C381.7 0 354.3 0 327 0C299.7 0 272.3 0 245.2 0C218 0 191 0 163.8 0C136.7 0 109.3 0 82 0C54.7 0 27.3 0 13.7 0L0 0Z"/><path fill="#b70d73" d="M0 217L13.7 218.8C27.3 220.7 54.7 224.3 82 224.3C109.3 224.3 136.7 220.7 163.8 219C191 217.3 218 217.7 245.2 216.5C272.3 215.3 299.7 212.7 327 215C354.3 217.3 381.7 224.7 409 229.7C436.3 234.7 463.7 237.3 491 234.5C518.3 231.7 545.7 223.3 573 219C600.3 214.7 627.7 214.3 654.8 216C682 217.7 709 221.3 736.2 224.7C763.3 228 790.7 231 818 230.3C845.3 229.7 872.7 225.3 886.3 223.2L900 221L900 0L886.3 0C872.7 0 845.3 0 818 0C790.7 0 763.3 0 736.2 0C709 0 682 0 654.8 0C627.7 0 600.3 0 573 0C545.7 0 518.3 0 491 0C463.7 0 436.3 0 409 0C381.7 0 354.3 0 327 0C299.7 0 272.3 0 245.2 0C218 0 191 0 163.8 0C136.7 0 109.3 0 82 0C54.7 0 27.3 0 13.7 0L0 0Z"/><path fill="#a3007e" d="M0 173L13.7 174C27.3 175 54.7 177 82 179C109.3 181 136.7 183 163.8 184.5C191 186 218 187 245.2 186.3C272.3 185.7 299.7 183.3 327 183.8C354.3 184.3 381.7 187.7 409 185.7C436.3 183.7 463.7 176.3 491 176.2C518.3 176 545.7 183 573 186.8C600.3 190.7 627.7 191.3 654.8 191.7C682 192 709 192 736.2 191.5C763.3 191 790.7 190 818 186.7C845.3 183.3 872.7 177.7 886.3 174.8L900 172L900 0L886.3 0C872.7 0 845.3 0 818 0C790.7 0 763.3 0 736.2 0C709 0 682 0 654.8 0C627.7 0 600.3 0 573 0C545.7 0 518.3 0 491 0C463.7 0 436.3 0 409 0C381.7 0 354.3 0 327 0C299.7 0 272.3 0 245.2 0C218 0 191 0 163.8 0C136.7 0 109.3 0 82 0C54.7 0 27.3 0 13.7 0L0 0Z"/><path fill="#8a0388" d="M0 127L13.7 127.3C27.3 127.7 54.7 128.3 82 128.3C109.3 128.3 136.7 127.7 163.8 128.5C191 129.3 218 131.7 245.2 132.2C272.3 132.7 299.7 131.3 327 130.8C354.3 130.3 381.7 130.7 409 133.8C436.3 137 463.7 143 491 145.3C518.3 147.7 545.7 146.3 573 143.8C600.3 141.3 627.7 137.7 654.8 138C682 138.3 709 142.7 736.2 144.7C763.3 146.7 790.7 146.3 818 145.3C845.3 144.3 872.7 142.7 886.3 141.8L900 141L900 0L886.3 0C872.7 0 845.3 0 818 0C790.7 0 763.3 0 736.2 0C709 0 682 0 654.8 0C627.7 0 600.3 0 573 0C545.7 0 518.3 0 491 0C463.7 0 436.3 0 409 0C381.7 0 354.3 0 327 0C299.7 0 272.3 0 245.2 0C218 0 191 0 163.8 0C136.7 0 109.3 0 82 0C54.7 0 27.3 0 13.7 0L0 0Z"/><path fill="#691292" d="M0 100L13.7 100.3C27.3 100.7 54.7 101.3 82 98.3C109.3 95.3 136.7 88.7 163.8 86.2C191 83.7 218 85.3 245.2 85.7C272.3 86 299.7 85 327 85.8C354.3 86.7 381.7 89.3 409 91C436.3 92.7 463.7 93.3 491 93.8C518.3 94.3 545.7 94.7 573 94.7C600.3 94.7 627.7 94.3 654.8 94.5C682 94.7 709 95.3 736.2 93.7C763.3 92 790.7 88 818 87.5C845.3 87 872.7 90 886.3 91.5L900 93L900 0L886.3 0C872.7 0 845.3 0 818 0C790.7 0 763.3 0 736.2 0C709 0 682 0 654.8 0C627.7 0 600.3 0 573 0C545.7 0 518.3 0 491 0C463.7 0 436.3 0 409 0C381.7 0 354.3 0 327 0C299.7 0 272.3 0 245.2 0C218 0 191 0 163.8 0C136.7 0 109.3 0 82 0C54.7 0 27.3 0 13.7 0L0 0Z"/><path fill="#381e9a" d="M0 43L13.7 44.3C27.3 45.7 54.7 48.3 82 49.8C109.3 51.3 136.7 51.7 163.8 50.8C191 50 218 48 245.2 48C272.3 48 299.7 50 327 51.7C354.3 53.3 381.7 54.7 409 53.5C436.3 52.3 463.7 48.7 491 46.3C518.3 44 545.7 43 573 42.3C600.3 41.7 627.7 41.3 654.8 41.7C682 42 709 43 736.2 43.3C763.3 43.7 790.7 43.3 818 45.3C845.3 47.3 872.7 51.7 886.3 53.8L900 56L900 0L886.3 0C872.7 0 845.3 0 818 0C790.7 0 763.3 0 736.2 0C709 0 682 0 654.8 0C627.7 0 600.3 0 573 0C545.7 0 518.3 0 491 0C463.7 0 436.3 0 409 0C381.7 0 354.3 0 327 0C299.7 0 272.3 0 245.2 0C218 0 191 0 163.8 0C136.7 0 109.3 0 82 0C54.7 0 27.3 0 13.7 0L0 0Z"/></svg>