<?xml version="1.0" standalone="no"?>
<!DOCTYPE svg PUBLIC "-//W3C//DTD SVG 20010904//EN"
 "http://www.w3.org/TR/2001/REC-SVG-20010904/DTD/svg10.dtd">
<svg version="1.0" xmlns="http://www.w3.org/2000/svg"
 width="200.000000pt" height="200.000000pt" viewBox="0 0 200.000000 200.000000"
 preserveAspectRatio="xMidYMid meet">
<metadata>
Created by potrace 1.14, written by Peter Selinger 2001-2017
</metadata>
<g transform="translate(0.000000,200.000000) scale(0.100000,-0.100000)"
fill="#000000" stroke="none">
<path d="M87 1569 c-13 -7 -15 -14 -8 -22 13 -17 20 -94 9 -105 -6 -6 -5 -12
2 -17 8 -5 6 -11 -7 -22 -12 -9 -14 -16 -7 -19 16 -7 5 -44 -12 -44 -8 0 -14
-6 -14 -14 0 -8 -11 -23 -24 -33 -30 -24 -31 -87 -3 -116 10 -10 16 -25 13
-33 -3 -8 -2 -13 3 -10 10 7 24 -22 16 -34 -3 -4 1 -10 8 -13 8 -3 13 -19 12
-41 -1 -20 2 -39 6 -42 5 -3 4 -15 -3 -27 -10 -19 -9 -20 4 -10 12 10 15 10
15 -2 0 -8 -4 -15 -9 -15 -5 0 -6 -5 -2 -11 3 -6 1 -15 -6 -19 -8 -5 -2 -12
19 -21 17 -8 31 -21 31 -30 0 -9 7 -20 16 -23 8 -3 13 -10 9 -16 -3 -5 3 -20
14 -32 16 -16 18 -25 10 -35 -9 -10 -7 -13 5 -13 10 0 14 -4 11 -10 -5 -8 19
-15 28 -7 2 1 11 -6 21 -16 10 -9 22 -15 27 -12 8 6 13 -8 10 -27 -1 -8 6 -10
39 -10 35 0 41 2 35 12 -3 6 0 10 9 10 8 0 16 -5 18 -12 3 -7 19 -11 41 -10
26 2 36 -1 35 -10 -2 -8 5 -12 16 -10 11 2 26 -4 33 -14 7 -10 13 -14 13 -10
0 4 7 0 16 -8 8 -9 25 -14 37 -12 12 2 28 -2 36 -8 11 -8 13 -8 7 2 -4 7 15
-1 43 -18 31 -18 51 -25 51 -17 0 8 3 8 9 -2 6 -9 11 -10 15 -2 5 8 11 7 21
-3 8 -7 25 -12 39 -11 14 2 26 -2 26 -8 0 -5 3 -7 7 -4 3 4 15 0 25 -9 13 -13
21 -14 31 -6 10 9 17 8 25 0 9 -9 12 -9 12 1 0 7 5 9 10 6 6 -4 8 -11 4 -16
-3 -5 0 -8 8 -7 7 2 12 -2 11 -9 -3 -14 24 -25 32 -13 3 5 15 0 25 -10 18 -18
43 -23 105 -22 11 0 25 -8 31 -16 11 -15 14 -15 35 3 13 12 19 14 14 5 -7 -12
-6 -13 6 -4 8 6 22 10 32 8 11 -1 16 0 13 3 -9 9 53 45 65 38 5 -4 9 -1 9 5 0
6 4 9 9 5 5 -3 12 -1 15 3 3 5 36 9 74 9 38 0 75 4 83 9 18 12 109 12 109 1 0
-5 7 -4 15 3 12 10 15 10 15 -1 0 -11 2 -11 10 1 5 8 10 11 10 6 0 -5 7 -2 16
5 9 7 28 15 42 17 15 2 29 6 32 10 3 4 17 13 33 21 15 8 27 19 27 24 0 5 7 4
16 -3 8 -8 14 -9 12 -4 -6 21 22 53 43 49 15 -3 19 0 15 11 -3 8 1 17 9 20 8
4 12 10 9 15 -3 5 0 9 5 9 6 0 11 7 11 15 0 8 5 15 12 15 9 0 9 3 1 11 -12 12
-6 42 7 34 4 -2 12 7 18 21 10 20 9 26 -3 30 -12 5 -12 10 -3 27 8 16 8 22 -1
25 -6 2 -11 15 -11 29 0 15 3 24 6 20 3 -3 14 3 24 13 22 22 23 61 1 52 -8 -3
-12 -1 -8 5 11 17 -13 72 -28 67 -8 -3 -12 4 -12 20 0 16 4 23 11 20 6 -3 2 2
-8 10 -11 9 -24 16 -29 16 -4 0 -6 4 -3 9 3 5 -8 8 -24 7 -23 -2 -30 2 -30 16
0 10 -4 18 -9 18 -10 0 -72 56 -71 64 1 20 -1 26 -12 26 -7 0 -20 12 -29 28
-8 15 -29 34 -45 42 -16 8 -35 21 -42 28 -8 7 -18 10 -23 6 -5 -3 -8 0 -7 7 2
7 -7 18 -19 24 -13 5 -23 13 -23 17 0 5 -6 8 -14 8 -7 0 -21 10 -30 23 -15 20
-17 20 -12 2 5 -15 0 -12 -19 10 -21 25 -25 27 -25 11 0 -17 -2 -18 -12 -5 -7
9 -32 22 -55 29 -24 7 -43 18 -43 24 0 6 -4 5 -9 -3 -8 -12 -12 -12 -25 -2
-13 11 -16 11 -16 0 0 -12 -2 -12 -9 -1 -11 17 -21 17 -32 0 -7 -10 -9 -10 -9
0 0 9 -18 12 -68 9 -38 -2 -74 -7 -81 -12 -8 -4 -17 -2 -22 6 -7 11 -9 10 -9
-5 0 -18 -1 -18 -18 -3 -10 10 -22 14 -25 10 -4 -3 -7 1 -7 10 0 21 -9 21 -34
2 -16 -12 -22 -12 -28 -2 -6 9 -8 9 -8 0 0 -7 -6 -10 -14 -7 -8 3 -17 0 -21
-6 -5 -8 -11 -7 -23 2 -13 11 -14 11 -7 -1 6 -11 4 -13 -8 -8 -10 4 -17 2 -17
-5 0 -6 -6 -5 -17 3 -13 11 -15 11 -9 1 6 -9 3 -12 -10 -10 -12 2 -18 -2 -16
-11 3 -12 0 -12 -12 -2 -10 9 -16 9 -21 1 -4 -6 -13 -9 -20 -6 -8 3 -15 0 -17
-5 -2 -5 -13 -11 -26 -12 -12 0 -22 -5 -22 -10 0 -5 -12 -2 -26 8 -17 11 -24
12 -18 4 5 -9 0 -8 -16 3 -14 9 -24 22 -22 28 1 6 -2 8 -8 5 -6 -4 -18 1 -25
11 -9 12 -14 14 -15 6 0 -7 -4 -10 -10 -7 -5 3 -10 1 -10 -5 0 -6 -4 -9 -9 -6
-5 4 -11 1 -13 -5 -2 -6 -18 -12 -36 -12 -18 -1 -32 -6 -32 -11 0 -4 -9 -6
-20 -3 -11 3 -20 1 -20 -4 0 -5 -7 -9 -15 -9 -8 0 -15 4 -15 9 0 5 -9 7 -20 4
-12 -3 -20 0 -20 6 0 7 -4 10 -8 7 -5 -3 -21 1 -36 9 -16 8 -24 10 -20 3 5 -7
2 -9 -8 -5 -9 3 -21 0 -27 -6 -9 -9 -11 -8 -5 6 3 10 3 17 -2 16 -28 -5 -54 3
-54 17 0 8 -4 12 -10 9 -9 -6 -15 8 -11 29 1 5 -5 6 -13 3 -9 -4 -18 -2 -21 3
-8 13 -25 12 -48 -1z m1083 -1129 c0 -5 -5 -10 -11 -10 -5 0 -7 5 -4 10 3 6 8
10 11 10 2 0 4 -4 4 -10z"/>
</g>
</svg>
